<?xml version="1.0" encoding="UTF-8" standalone="no"?>
<svg xmlns="http://www.w3.org/2000/svg" width="28.031" height="28"
     viewBox="0 0 28.031 28" xmlns:xlink="http://www.w3.org/1999/xlink">
  <path fill="#f63440"
    d="M337.021,26.024a14.043,14.043,0,0,1-.8,4.62c-0.033.094-.066,0.187-0.1,0.281s-0.072.187-.11,0.28a2.873,2.873,0,0,0-.088.706,2.821,2.821,0,0,0,.556,1.685,4.243,4.243,0,0,1-5.743,5.794,2.813,2.813,0,0,0-2.125-.551c-0.169.074-.338,0.145-0.511,0.212-0.211.083-.426,0.161-0.642,0.234a14.015,14.015,0,0,1-18.431-12.429L309,26.168a0.016,0.016,0,0,1,0,0c0-.029,0-0.058,0-0.087v0h0V26.005c0-.007,0-0.013,0-0.02a14.016,14.016,0,0,1,.794-4.62c0.033-.094.066-0.187,0.1-0.28s0.072-.187.109-0.28a2.842,2.842,0,0,0-.468-2.39,4.25,4.25,0,0,1-.537-2.11,4.24,4.24,0,0,1,6.282-3.684A2.8,2.8,0,0,0,317,13.2a2.907,2.907,0,0,0,.414-0.03c0.167-.074.339-0.145,0.51-0.213,0.211-.082.426-0.16,0.642-0.232a14.015,14.015,0,0,1,18.431,12.428c0.01,0.014.01,0,.01,0.014l0.019,0.673a0.006,0.006,0,0,1,0,0c0,0.029,0,.059,0,0.088v0h0v0.094Zm-0.032-.34a4.392,4.392,0,0,0-.068-0.579A4.392,4.392,0,0,1,336.989,25.684Zm-0.144-.824a4.026,4.026,0,0,0-.175-0.537A4.026,4.026,0,0,1,336.845,24.86Zm-0.31-.786a4.072,4.072,0,0,0-.255-0.458A4.072,4.072,0,0,1,336.535,24.074Zm-5.69-1.8c-0.117.061-.238,0.116-0.347,0.188C330.607,22.392,330.728,22.336,330.845,22.275Zm1.716-.477a4.227,4.227,0,0,0-.589.06A4.227,4.227,0,0,1,332.561,21.8Zm-0.942.164a4.368,4.368,0,0,0-.42.131A4.368,4.368,0,0,1,331.619,21.962ZM316.14,29.057c-0.088.084-.188,0.157-0.283,0.234C315.952,29.213,316.051,29.141,316.14,29.057Zm-4.552.847c-0.057-.024-0.106-0.06-0.162-0.086C311.482,29.843,311.531,29.879,311.588,29.9Zm-0.712-.385c-0.1-.064-0.176-0.145-0.266-0.216C310.7,29.373,310.78,29.454,310.876,29.519Zm-1.842-3.193a4.209,4.209,0,0,0,.068.578A4.209,4.209,0,0,1,309.034,26.325Zm0.144,0.825a4.4,4.4,0,0,0,.175.537A4.232,4.232,0,0,1,309.178,27.15Zm0.31,0.786a4.687,4.687,0,0,0,.254.459A4.687,4.687,0,0,1,309.488,27.936Zm0.478,0.727a4.383,4.383,0,0,0,.289.346A4.383,4.383,0,0,1,309.966,28.663Zm5.213,1.072a3.84,3.84,0,0,0,.346-0.189A3.84,3.84,0,0,1,315.179,29.735Zm-1.716.477a4.29,4.29,0,0,0,.588-0.059A4.29,4.29,0,0,1,313.463,30.212Zm0.942-.164a4.366,4.366,0,0,0,.42-0.131A4.366,4.366,0,0,1,314.4,30.047Zm2.48-1.966c0.057-.1.115-0.2,0.163-0.3C317,27.884,316.942,27.982,316.885,28.082Zm-0.455.652c0.075-.09.154-0.175,0.222-0.271C316.584,28.558,316.505,28.644,316.43,28.733Zm6.581-8.282a5.742,5.742,0,0,0-5.579,5.2c0.009,0.117.018,0.234,0.018,0.354a4.311,4.311,0,0,1-.057.561c0.01-.076.034-0.147,0.039-0.224a5.593,5.593,0,0,0,11.16.017c-0.011-.117-0.019-0.236-0.019-0.355a4.013,4.013,0,0,1,.057-0.562c-0.01.076-.033,0.148-0.04,0.224A5.742,5.742,0,0,0,323.011,20.451Zm-5.8,6.9c0.037-.11.074-0.219,0.1-0.333C317.284,27.134,317.247,27.244,317.21,27.354Zm11.929-3.426c-0.058.1-.116,0.2-0.165,0.3C329.023,24.126,329.081,24.027,329.139,23.928Zm-0.325.727c-0.038.111-.076,0.219-0.105,0.333C328.738,24.875,328.776,24.766,328.814,24.655Zm0.557-1.109c0.068-.1.147-0.181,0.222-0.27C329.518,23.366,329.439,23.451,329.371,23.547Zm0.512-.593c0.088-.085.188-0.158,0.284-0.235C330.071,22.8,329.971,22.868,329.883,22.954Zm4.553-.848c0.056,0.024.107,0.061,0.162,0.087C334.543,22.167,334.492,22.13,334.436,22.106Zm0.711,0.385c0.1,0.064.177,0.146,0.267,0.217C335.324,22.637,335.242,22.555,335.147,22.491ZM335.767,23c0.107,0.107.2,0.23,0.292,0.348C335.963,23.23,335.874,23.107,335.767,23Z"
    transform="translate(-309 -12)"/>
</svg>
